
<svg width="200" height="50" viewBox="0 0 200 50" fill="none" xmlns="http://www.w3.org/2000/svg">
  <path d="M39.5 12H10.5C8.01472 12 6 14.0147 6 16.5V39.5C6 41.9853 8.01472 44 10.5 44H39.5C41.9853 44 44 41.9853 44 39.5V16.5C44 14.0147 41.9853 12 39.5 12Z" fill="#1A73E8"/>
  <path d="M39.5 6H10.5C8.01472 6 6 8.01472 6 10.5V16.5H44V10.5C44 8.01472 41.9853 6 39.5 6Z" fill="#FF6D01"/>
  <path d="M25 20L15 36H20L30 20H25Z" fill="white"/>
  <path d="M35 20L25 36H30L40 20H35Z" fill="white"/>
  <path d="M63.5 16V34H60.5V19H53.5V16H63.5Z" fill="#202124"/>
  <path d="M66.5 16H69.5V28.5C69.5 30.5 70.5 31.5 73 31.5C75.5 31.5 76.5 30.5 76.5 28.5V16H79.5V28.5C79.5 32 77.5 34 73 34C68.5 34 66.5 32 66.5 28.5V16Z" fill="#202124"/>
  <path d="M89.5 29.5C89.5 28.5 89 27 86.5 27C84 27 83.5 28.5 83.5 29.5C83.5 30.5 84 32 86.5 32C89 32 89.5 30.5 89.5 29.5ZM92.5 29.5C92.5 32 90.5 34 86.5 34C82.5 34 80.5 32 80.5 29.5C80.5 27 82.5 25 86.5 25C90.5 25 92.5 27 92.5 29.5Z" fill="#202124"/>
  <path d="M102 31.5V34H94V16H97V31.5H102Z" fill="#202124"/>
  <path d="M111.5 16V34H108.5V16H111.5Z" fill="#202124"/>
  <path d="M113.5 25H122.5V27H113.5V25Z" fill="#FF6D01"/>
  <path d="M132 34L128 29L124 34H120.5L126.5 27L121 21H124.5L128 25.5L131.5 21H135L129.5 27L135.5 34H132Z" fill="#202124"/>
  <path d="M136.5 16H139.5V28.5C139.5 30.5 140.5 31.5 143 31.5C145.5 31.5 146.5 30.5 146.5 28.5V16H149.5V28.5C149.5 32 147.5 34 143 34C138.5 34 136.5 32 136.5 28.5V16Z" fill="#202124"/>
  <path d="M152 16H155V31.5H162V34H152V16Z" fill="#202124"/>
  <path d="M170 31.5V28H163V25.5H170V22H163V19H170V16H160V34H170V31.5Z" fill="#202124"/>
</svg>
